<mxfile host="app.diagrams.net" agent="Mozilla/5.0 (Windows NT 10.0; Win64; x64) AppleWebKit/537.36 (KHTML, like Gecko) Chrome/134.0.0.0 Safari/537.36 Edg/134.0.0.0" version="26.1.1">
  <diagram name="Page-1" id="Ck4wi6a6DWHloFYWMUGT">
    <mxGraphModel dx="2097" dy="1754" grid="1" gridSize="10" guides="1" tooltips="1" connect="1" arrows="1" fold="1" page="1" pageScale="1" pageWidth="850" pageHeight="1100" math="0" shadow="0">
      <root>
        <mxCell id="0" />
        <mxCell id="1" parent="0" />
        <mxCell id="3" value="" style="ellipse;aspect=fixed;strokeWidth=2;whiteSpace=wrap;fillColor=none;" parent="1" vertex="1">
          <mxGeometry x="280" y="-319" width="470" height="470" as="geometry" />
        </mxCell>
        <mxCell id="Ld8JMFl7umHXwjc7weUc-22" value="" style="ellipse;aspect=fixed;strokeWidth=2;whiteSpace=wrap;fillColor=none;" vertex="1" parent="1">
          <mxGeometry x="570" y="134" width="400" height="400" as="geometry" />
        </mxCell>
        <mxCell id="Ld8JMFl7umHXwjc7weUc-26" value="" style="ellipse;aspect=fixed;strokeWidth=2;whiteSpace=wrap;fillColor=none;" vertex="1" parent="1">
          <mxGeometry x="-330" y="440" width="383" height="383" as="geometry" />
        </mxCell>
        <mxCell id="2" value="authentication.py" style="whiteSpace=wrap;strokeWidth=2;fontStyle=1" parent="1" vertex="1">
          <mxGeometry x="390" y="-203" width="110" height="54" as="geometry" />
        </mxCell>
        <mxCell id="4" value="Judah" style="rhombus;strokeWidth=2;whiteSpace=wrap;fillColor=#e1d5e7;strokeColor=#9673a6;" parent="1" vertex="1">
          <mxGeometry x="500" y="-319" width="52" height="62" as="geometry" />
        </mxCell>
        <mxCell id="Ld8JMFl7umHXwjc7weUc-21" value="data_persistence.py" style="whiteSpace=wrap;strokeWidth=2;fontStyle=1" vertex="1" parent="1">
          <mxGeometry x="620" y="228" width="130" height="32" as="geometry" />
        </mxCell>
        <mxCell id="Ld8JMFl7umHXwjc7weUc-23" value="Laween" style="rhombus;strokeWidth=2;whiteSpace=wrap;fillColor=#d80073;fontColor=#ffffff;strokeColor=#A50040;" vertex="1" parent="1">
          <mxGeometry x="744" y="134" width="52" height="62" as="geometry" />
        </mxCell>
        <mxCell id="Ld8JMFl7umHXwjc7weUc-24" value="github_integration.py" style="rounded=0;whiteSpace=wrap;html=1;strokeColor=default;strokeWidth=2;align=center;verticalAlign=middle;fontFamily=Helvetica;fontSize=12;fontColor=default;fillColor=default;fontStyle=1" vertex="1" parent="1">
          <mxGeometry x="796" y="225.5" width="139" height="32" as="geometry" />
        </mxCell>
        <mxCell id="Ld8JMFl7umHXwjc7weUc-25" value="board_and_pieces.py" style="whiteSpace=wrap;strokeWidth=2;fontStyle=1" vertex="1" parent="1">
          <mxGeometry x="-304.5" y="577" width="134.5" height="33" as="geometry" />
        </mxCell>
        <mxCell id="Ld8JMFl7umHXwjc7weUc-27" value="Ben" style="rhombus;strokeWidth=2;whiteSpace=wrap;fillColor=#f8cecc;strokeColor=#b85450;" vertex="1" parent="1">
          <mxGeometry x="-165.5" y="458" width="52" height="62" as="geometry" />
        </mxCell>
        <mxCell id="Ld8JMFl7umHXwjc7weUc-28" value="chess.py" style="rounded=0;whiteSpace=wrap;html=1;strokeColor=default;strokeWidth=2;align=center;verticalAlign=middle;fontFamily=Helvetica;fontSize=12;fontColor=default;fillColor=default;fontStyle=1" vertex="1" parent="1">
          <mxGeometry x="-160" y="577" width="110" height="33" as="geometry" />
        </mxCell>
        <mxCell id="Ld8JMFl7umHXwjc7weUc-30" value="&lt;div&gt;GUI_class.py&lt;/div&gt;" style="rounded=0;whiteSpace=wrap;html=1;strokeColor=default;strokeWidth=2;align=center;verticalAlign=middle;fontFamily=Helvetica;fontSize=12;fontColor=default;fillColor=default;fontStyle=1" vertex="1" parent="1">
          <mxGeometry x="-304.5" y="613" width="134.5" height="24" as="geometry" />
        </mxCell>
        <mxCell id="Ld8JMFl7umHXwjc7weUc-31" value="" style="ellipse;aspect=fixed;strokeWidth=2;whiteSpace=wrap;fillColor=none;" vertex="1" parent="1">
          <mxGeometry x="83.5" y="630" width="383" height="383" as="geometry" />
        </mxCell>
        <mxCell id="Ld8JMFl7umHXwjc7weUc-32" value="voting.py" style="whiteSpace=wrap;strokeWidth=2;fontStyle=1" vertex="1" parent="1">
          <mxGeometry x="150" y="767" width="140" height="52" as="geometry" />
        </mxCell>
        <mxCell id="Ld8JMFl7umHXwjc7weUc-33" value="Ugi" style="rhombus;strokeWidth=2;whiteSpace=wrap;fillColor=#0050ef;fontColor=#ffffff;strokeColor=#001DBC;" vertex="1" parent="1">
          <mxGeometry x="249" y="630" width="52" height="62" as="geometry" />
        </mxCell>
        <mxCell id="Ld8JMFl7umHXwjc7weUc-36" value="" style="ellipse;aspect=fixed;strokeWidth=2;whiteSpace=wrap;fillColor=none;" vertex="1" parent="1">
          <mxGeometry x="520" y="594" width="383" height="383" as="geometry" />
        </mxCell>
        <mxCell id="Ld8JMFl7umHXwjc7weUc-37" value="team_management.py" style="whiteSpace=wrap;strokeWidth=2;fontStyle=1" vertex="1" parent="1">
          <mxGeometry x="580" y="686" width="140" height="52" as="geometry" />
        </mxCell>
        <mxCell id="Ld8JMFl7umHXwjc7weUc-38" value="James" style="rhombus;strokeWidth=2;whiteSpace=wrap;fillColor=#ffe6cc;strokeColor=#d79b00;" vertex="1" parent="1">
          <mxGeometry x="685.5" y="594" width="52" height="62" as="geometry" />
        </mxCell>
        <mxCell id="Ld8JMFl7umHXwjc7weUc-39" value="scheduler.py" style="rounded=0;whiteSpace=wrap;html=1;strokeColor=default;strokeWidth=2;align=center;verticalAlign=middle;fontFamily=Helvetica;fontSize=12;fontColor=default;fillColor=default;fontStyle=1" vertex="1" parent="1">
          <mxGeometry x="615.5" y="350" width="139" height="32" as="geometry" />
        </mxCell>
        <mxCell id="Ld8JMFl7umHXwjc7weUc-40" value="" style="ellipse;aspect=fixed;strokeWidth=2;whiteSpace=wrap;fillColor=none;" vertex="1" parent="1">
          <mxGeometry x="-470" y="50" width="383" height="383" as="geometry" />
        </mxCell>
        <mxCell id="Ld8JMFl7umHXwjc7weUc-41" value="frontend.py" style="whiteSpace=wrap;strokeWidth=2;fontStyle=1" vertex="1" parent="1">
          <mxGeometry x="-423.5" y="180" width="93.5" height="23" as="geometry" />
        </mxCell>
        <mxCell id="Ld8JMFl7umHXwjc7weUc-42" value="Donny" style="rhombus;strokeWidth=2;whiteSpace=wrap;fillColor=#fff2cc;strokeColor=#d6b656;" vertex="1" parent="1">
          <mxGeometry x="-304.5" y="50" width="52" height="62" as="geometry" />
        </mxCell>
        <mxCell id="Ld8JMFl7umHXwjc7weUc-45" value="" style="ellipse;aspect=fixed;strokeWidth=2;whiteSpace=wrap;fillColor=none;" vertex="1" parent="1">
          <mxGeometry x="-190" y="-313" width="383" height="383" as="geometry" />
        </mxCell>
        <mxCell id="Ld8JMFl7umHXwjc7weUc-46" value="statistics.py" style="whiteSpace=wrap;strokeWidth=2;fontStyle=1" vertex="1" parent="1">
          <mxGeometry x="-123.5" y="-176" width="140" height="52" as="geometry" />
        </mxCell>
        <mxCell id="Ld8JMFl7umHXwjc7weUc-47" value="Jonathan" style="rhombus;strokeWidth=2;whiteSpace=wrap;fillColor=#d5e8d4;strokeColor=#82b366;" vertex="1" parent="1">
          <mxGeometry x="-28.5" y="-310" width="60" height="70" as="geometry" />
        </mxCell>
        <mxCell id="Ld8JMFl7umHXwjc7weUc-51" value="Smoke" style="ellipse;shape=cloud;whiteSpace=wrap;html=1;fillColor=#a0522d;fontColor=#ffffff;strokeColor=#6D1F00;" vertex="1" parent="1">
          <mxGeometry x="70" y="-570" width="310" height="220" as="geometry" />
        </mxCell>
        <mxCell id="Ld8JMFl7umHXwjc7weUc-52" value="" style="endArrow=classic;startArrow=classic;html=1;rounded=0;entryX=0.8;entryY=0.8;entryDx=0;entryDy=0;entryPerimeter=0;exitX=0.275;exitY=0.055;exitDx=0;exitDy=0;exitPerimeter=0;" edge="1" parent="1" source="3" target="Ld8JMFl7umHXwjc7weUc-51">
          <mxGeometry width="50" height="50" relative="1" as="geometry">
            <mxPoint x="280" y="-260" as="sourcePoint" />
            <mxPoint x="330" y="-310" as="targetPoint" />
          </mxGeometry>
        </mxCell>
        <mxCell id="Ld8JMFl7umHXwjc7weUc-53" value="collect_votes()" style="whiteSpace=wrap;strokeWidth=2;fillColor=#f5f5f5;fontColor=#333333;strokeColor=#666666;rounded=1;glass=0;shadow=0;" vertex="1" parent="1">
          <mxGeometry x="170" y="823" width="100" height="30" as="geometry" />
        </mxCell>
        <mxCell id="Ld8JMFl7umHXwjc7weUc-55" value="setup_board()" style="whiteSpace=wrap;strokeWidth=2;fillColor=#f5f5f5;fontColor=#333333;strokeColor=#666666;rounded=1;glass=0;shadow=0;" vertex="1" parent="1">
          <mxGeometry x="-287.25" y="637" width="100" height="30" as="geometry" />
        </mxCell>
        <mxCell id="Ld8JMFl7umHXwjc7weUc-56" value="display_board()" style="whiteSpace=wrap;strokeWidth=2;fillColor=#f5f5f5;fontColor=#333333;strokeColor=#666666;rounded=1;glass=0;shadow=0;" vertex="1" parent="1">
          <mxGeometry x="-426.75" y="210.5" width="100" height="30" as="geometry" />
        </mxCell>
        <mxCell id="Ld8JMFl7umHXwjc7weUc-57" value="gui_to_cli()" style="whiteSpace=wrap;strokeWidth=2;fillColor=#f5f5f5;fontColor=#333333;strokeColor=#666666;rounded=1;glass=0;shadow=0;" vertex="1" parent="1">
          <mxGeometry x="-426.75" y="250" width="100" height="30" as="geometry" />
        </mxCell>
        <mxCell id="Ld8JMFl7umHXwjc7weUc-58" value="store_statistics()" style="whiteSpace=wrap;strokeWidth=2;fillColor=#f5f5f5;fontColor=#333333;strokeColor=#666666;rounded=1;glass=0;shadow=0;" vertex="1" parent="1">
          <mxGeometry x="-153.25" y="613" width="100" height="30" as="geometry" />
        </mxCell>
        <mxCell id="Ld8JMFl7umHXwjc7weUc-60" value="store_vote()" style="whiteSpace=wrap;strokeWidth=2;fillColor=#f5f5f5;fontColor=#333333;strokeColor=#666666;rounded=1;glass=0;shadow=0;" vertex="1" parent="1">
          <mxGeometry x="-155" y="646" width="100" height="30" as="geometry" />
        </mxCell>
        <mxCell id="Ld8JMFl7umHXwjc7weUc-61" value="move_validator()" style="whiteSpace=wrap;strokeWidth=2;fillColor=#f5f5f5;fontColor=#333333;strokeColor=#666666;rounded=1;glass=0;shadow=0;" vertex="1" parent="1">
          <mxGeometry x="-155" y="676" width="100" height="30" as="geometry" />
        </mxCell>
        <mxCell id="Ld8JMFl7umHXwjc7weUc-62" value="get_teams_info()" style="whiteSpace=wrap;strokeWidth=2;fillColor=#f5f5f5;fontColor=#333333;strokeColor=#666666;rounded=1;glass=0;shadow=0;" vertex="1" parent="1">
          <mxGeometry x="600" y="738" width="100" height="30" as="geometry" />
        </mxCell>
        <mxCell id="Ld8JMFl7umHXwjc7weUc-63" value="authenticate_user()" style="whiteSpace=wrap;strokeWidth=2;fillColor=#f5f5f5;fontColor=#333333;strokeColor=#666666;rounded=1;glass=0;shadow=0;" vertex="1" parent="1">
          <mxGeometry x="385" y="-141.5" width="120" height="40" as="geometry" />
        </mxCell>
        <mxCell id="Ld8JMFl7umHXwjc7weUc-64" value="display_statistics()" style="whiteSpace=wrap;strokeWidth=2;fillColor=#f5f5f5;fontColor=#333333;strokeColor=#666666;rounded=1;glass=0;shadow=0;" vertex="1" parent="1">
          <mxGeometry x="-113.5" y="-120" width="120" height="40" as="geometry" />
        </mxCell>
        <mxCell id="Ld8JMFl7umHXwjc7weUc-65" value="commit_to_github()" style="whiteSpace=wrap;strokeWidth=2;fillColor=#f5f5f5;fontColor=#333333;strokeColor=#666666;rounded=1;glass=0;shadow=0;" vertex="1" parent="1">
          <mxGeometry x="803.25" y="260" width="124.5" height="30" as="geometry" />
        </mxCell>
        <mxCell id="Ld8JMFl7umHXwjc7weUc-66" value="save_game_state()" style="whiteSpace=wrap;strokeWidth=2;fillColor=#f5f5f5;fontColor=#333333;strokeColor=#666666;rounded=1;glass=0;shadow=0;" vertex="1" parent="1">
          <mxGeometry x="625.5" y="260" width="124.5" height="30" as="geometry" />
        </mxCell>
        <mxCell id="Ld8JMFl7umHXwjc7weUc-67" value="load_game_state()" style="whiteSpace=wrap;strokeWidth=2;fillColor=#f5f5f5;fontColor=#333333;strokeColor=#666666;rounded=1;glass=0;shadow=0;" vertex="1" parent="1">
          <mxGeometry x="625.5" y="290" width="124.5" height="30" as="geometry" />
        </mxCell>
        <mxCell id="Ld8JMFl7umHXwjc7weUc-68" value="scheduled_commit()" style="whiteSpace=wrap;strokeWidth=2;fillColor=#f5f5f5;fontColor=#333333;strokeColor=#666666;rounded=1;glass=0;shadow=0;" vertex="1" parent="1">
          <mxGeometry x="620" y="382" width="124.5" height="30" as="geometry" />
        </mxCell>
        <mxCell id="Ld8JMFl7umHXwjc7weUc-69" value="start_scheduler()" style="whiteSpace=wrap;strokeWidth=2;fillColor=#f5f5f5;fontColor=#333333;strokeColor=#666666;rounded=1;glass=0;shadow=0;" vertex="1" parent="1">
          <mxGeometry x="619.5" y="412" width="124.5" height="30" as="geometry" />
        </mxCell>
        <mxCell id="Ld8JMFl7umHXwjc7weUc-71" value="Main.py" style="whiteSpace=wrap;strokeWidth=2;fontStyle=1;fillColor=#647687;fontColor=#ffffff;strokeColor=#314354;" vertex="1" parent="1">
          <mxGeometry x="180" y="180" width="130" height="30" as="geometry" />
        </mxCell>
        <mxCell id="Ld8JMFl7umHXwjc7weUc-73" value="start_scheduler()" style="whiteSpace=wrap;strokeWidth=2;fillColor=#f5f5f5;fontColor=#333333;strokeColor=#666666;rounded=1;glass=0;shadow=0;" vertex="1" parent="1">
          <mxGeometry x="185.5" y="210.5" width="124.5" height="30" as="geometry" />
        </mxCell>
        <mxCell id="Ld8JMFl7umHXwjc7weUc-74" value="setup_board()" style="whiteSpace=wrap;strokeWidth=2;fillColor=#f5f5f5;fontColor=#333333;strokeColor=#666666;rounded=1;glass=0;shadow=0;" vertex="1" parent="1">
          <mxGeometry x="195" y="240.5" width="100" height="30" as="geometry" />
        </mxCell>
        <mxCell id="Ld8JMFl7umHXwjc7weUc-75" value="balance_teams()" style="whiteSpace=wrap;strokeWidth=2;fillColor=#f5f5f5;fontColor=#333333;strokeColor=#666666;rounded=1;glass=0;shadow=0;" vertex="1" parent="1">
          <mxGeometry x="600" y="770.5" width="100" height="30" as="geometry" />
        </mxCell>
        <mxCell id="Ld8JMFl7umHXwjc7weUc-76" value="assign_team_id()" style="whiteSpace=wrap;strokeWidth=2;fillColor=#f5f5f5;fontColor=#333333;strokeColor=#666666;rounded=1;glass=0;shadow=0;" vertex="1" parent="1">
          <mxGeometry x="600" y="806.5" width="100" height="30" as="geometry" />
        </mxCell>
        <mxCell id="Ld8JMFl7umHXwjc7weUc-77" value="get_statistics()" style="whiteSpace=wrap;strokeWidth=2;fillColor=#f5f5f5;fontColor=#333333;strokeColor=#666666;rounded=1;glass=0;shadow=0;" vertex="1" parent="1">
          <mxGeometry x="-113.5" y="-80" width="120" height="40" as="geometry" />
        </mxCell>
      </root>
    </mxGraphModel>
  </diagram>
</mxfile>
